<svg height="32" viewBox="0 0 32 32" width="32" xmlns="http://www.w3.org/2000/svg"><path d="m12.745.917c-1.458.328-2.906.781-4.266 1.464.031 1.198.109 2.344.266 3.505-.526.339-1.078.63-1.568 1.026-.5.38-1.01.75-1.464 1.198-.906-.594-1.859-1.156-2.849-1.651-1.063 1.141-2.052 2.375-2.865 3.755.609.99 1.25 1.911 1.938 2.792h.016v8.474c.016 0 .031 0 .047.005l5.198.5c.271.026.484.245.5.521l.161 2.292 4.531.323.313-2.115c.042-.276.276-.479.552-.479h5.484c.276 0 .51.203.552.479l.313 2.115 4.531-.323.161-2.292c.016-.276.229-.495.505-.521l5.193-.5c.016 0 .031-.005.047-.005v-8.474h.021c.688-.875 1.323-1.802 1.932-2.792-.807-1.38-1.802-2.615-2.865-3.755-.984.495-1.943 1.057-2.849 1.651-.453-.448-.958-.818-1.458-1.198-.495-.396-1.047-.688-1.573-1.026.156-1.161.234-2.307.266-3.505-1.354-.682-2.802-1.135-4.266-1.464-.583.984-1.115 2.047-1.578 3.083-.552-.089-1.109-.125-1.661-.13h-.026c-.552.005-1.109.042-1.661.13-.464-1.036-.995-2.099-1.583-3.083zm-4.11 12.406c1.729 0 3.13 1.406 3.13 3.135s-1.401 3.13-3.13 3.13-3.13-1.401-3.13-3.13 1.401-3.135 3.13-3.135zm14.73 0c1.729 0 3.13 1.406 3.13 3.135s-1.401 3.13-3.13 3.13-3.13-1.401-3.13-3.13 1.401-3.135 3.13-3.135zm-14.433 1.245c-1.146 0-2.078.927-2.078 2.078 0 1.146.932 2.073 2.078 2.073 1.151 0 2.083-.927 2.083-2.073 0-1.151-.932-2.078-2.083-2.078zm14.131 0c-1.146 0-2.078.927-2.078 2.078 0 1.146.932 2.073 2.078 2.073 1.151 0 2.078-.927 2.078-2.073 0-1.151-.927-2.078-2.078-2.078zm-7.063.604c.557 0 1.01.406 1.01.911v2.885c0 .505-.453.917-1.01.917s-1.01-.411-1.01-.917v-2.885c0-.505.453-.911 1.01-.911zm-14.052 7.427c0 .505.005 1.052.005 1.161 0 4.938 6.26 7.307 14.036 7.333h.021c7.776-.026 14.031-2.396 14.031-7.333 0-.109.005-.656.01-1.161l-4.672.453-.161 2.307c-.021.276-.24.5-.516.516l-5.578.396c-.271 0-.51-.198-.552-.474l-.318-2.156h-4.516l-.318 2.156c-.042.286-.297.495-.594.474l-5.531-.396c-.276-.021-.5-.24-.521-.516l-.156-2.307-4.672-.448z"/></svg>